<?xml version="1.0" encoding="UTF-8"?>
<svg version="1.1" xmlns="http://www.w3.org/2000/svg" width="720" height="720">
<path d="M0 0 C1.27488281 0.07992187 2.54976563 0.15984375 3.86328125 0.2421875 C37.81175129 2.93075989 70.75978004 19.06043129 93 45 C110.42921185 66.53513195 121.52054272 91.14539055 123 119 C124.54494141 119.12955078 124.54494141 119.12955078 126.12109375 119.26171875 C158.46313013 122.3169046 188.96153094 137.93774038 210.35742188 162.56225586 C232.05705712 189.11507815 245.09136035 222.66274368 241.77734375 257.32910156 C240.43021525 269.27775184 237.82767144 280.61358307 234 292 C233.55720703 293.34384766 233.55720703 293.34384766 233.10546875 294.71484375 C228.40165964 307.62347057 220.5354495 319.35164944 212 330 C211.53980469 330.60199219 211.07960938 331.20398438 210.60546875 331.82421875 C207.79864039 335.40081275 204.53002469 338.29884017 201.078125 341.2265625 C199.77326882 342.34010518 198.48824904 343.47778519 197.234375 344.6484375 C178.58937984 361.91532433 154.81848334 371.23654146 130 375 C129.03449219 375.20109375 128.06898438 375.4021875 127.07421875 375.609375 C124.40874998 375.94806226 122.29671365 375.9259429 119.64453125 375.71875 C110.87867681 375.02795317 110.87867681 375.02795317 103.19189453 378.53417969 C99.88947827 382.60519954 97.54098435 387.21652437 95.16015625 391.86621094 C90.64062561 400.17864734 83.13997855 407.88648771 76 414 C75.34 414 74.68 414 74 414 C74 414.66 74 415.32 74 416 C71.95091883 417.65805828 69.90879916 419.18373067 67.75 420.6875 C67.11320312 421.13448242 66.47640625 421.58146484 65.8203125 422.04199219 C43.77749685 437.33364667 19.76987256 446.17540217 -7.06196594 446.13371277 C-8.14333035 446.13597833 -9.22469476 446.13824388 -10.33882779 446.14057809 C-13.9450531 446.14688409 -17.5512405 446.14609092 -21.1574707 446.14526367 C-23.75013273 446.14825726 -26.34279432 446.15166026 -28.93545532 446.15544128 C-35.23686274 446.16372379 -41.53826079 446.16649503 -47.8396732 446.16705366 C-52.96473839 446.16752992 -58.08980051 446.16959013 -63.21486473 446.17275429 C-77.76535003 446.18155395 -92.31582796 446.18617469 -106.86631594 446.18542381 C-107.64962846 446.18538386 -108.43294097 446.1853439 -109.23999023 446.18530273 C-110.02426591 446.18526185 -110.80854159 446.18522097 -111.61658319 446.18517885 C-124.32434125 446.18477247 -137.03206966 446.19434177 -149.73981915 446.2084411 C-162.80762753 446.22282482 -175.87542147 446.2297102 -188.94323796 446.22884732 C-196.27197376 446.22851607 -203.60067848 446.23123191 -210.92940712 446.24202538 C-217.82328108 446.25211389 -224.71708849 446.25177468 -231.61096573 446.24450874 C-234.13603626 446.2434649 -236.66111091 446.24581386 -239.18617439 446.2518692 C-242.64322039 446.25962033 -246.10004175 446.2549236 -249.55708313 446.24723816 C-250.54709125 446.25238172 -251.53709938 446.25752529 -252.55710775 446.26282471 C-281.70548605 446.1204395 -307.71849022 433.88606779 -330 416 C-330.99 415.34 -331.98 414.68 -333 414 C-333 413.34 -333 412.68 -333 412 C-333.598125 411.731875 -334.19625 411.46375 -334.8125 411.1875 C-336.99847854 410.00082594 -338.41332594 408.90400887 -340 407 C-340 406.34 -340 405.68 -340 405 C-340.66 405 -341.32 405 -342 405 C-365.10238918 381.08279626 -375.58683687 347.8460258 -375.3515625 315.25317383 C-374.59288081 280.74105965 -360.24280187 248.65519358 -335.59033203 224.48779297 C-313.3238243 203.65695199 -286.79165921 192.98301531 -257 189 C-256.86464844 187.87207031 -256.72929687 186.74414062 -256.58984375 185.58203125 C-252.71492706 156.19461253 -239.94942248 127.50220781 -218 107 C-217.34 107 -216.68 107 -216 107 C-216 106.34 -216 105.68 -216 105 C-213.89155367 103.164482 -211.77905628 101.446275 -209.5625 99.75 C-208.91796875 99.25274414 -208.2734375 98.75548828 -207.609375 98.24316406 C-188.16655209 83.3493383 -164.45003223 72.2889554 -139.56640625 71.8359375 C-128.46553367 72.13693931 -128.46553367 72.13693931 -118.21044922 68.85205078 C-115.09776231 65.49536826 -113.69913389 61.17386187 -112 57 C-110.48765178 54.73550702 -108.99398039 52.62470903 -107.3125 50.5 C-106.89726074 49.96753662 -106.48202148 49.43507324 -106.05419922 48.88647461 C-84.29904683 21.60418207 -53.34467499 4.80337169 -18.8125 0.8125 C-12.5206225 0.15889098 -6.32587228 -0.41989917 0 0 Z " fill="#AAD3F0" transform="translate(404,135)"/>
<path d="M0 0 C0.82179415 0.00008822 1.6435883 0.00017644 2.4902853 0.00026734 C3.4391456 -0.00448347 4.3880059 -0.00923429 5.36561954 -0.01412906 C6.41734331 -0.00916088 7.46906708 -0.0041927 8.55266127 0.00092603 C9.66730762 -0.00168126 10.78195397 -0.00428854 11.93037748 -0.00697483 C15.7101341 -0.01333097 19.48972811 -0.00527711 23.26948008 0.00257684 C25.9887396 0.00210102 28.70799335 -0.00138794 31.42725065 -0.00473957 C37.36246728 -0.01044061 43.29764573 -0.00865699 49.23286089 -0.0020542 C58.05843546 0.00773711 66.88398191 0.00613787 75.70955971 0.0021955 C90.55388559 -0.00408985 105.39819561 -0.00089644 120.2425197 0.00778962 C134.94710468 0.01639225 149.65168255 0.02131006 164.35627016 0.02112199 C165.26959008 0.02111434 166.18291001 0.0211067 167.12390629 0.02109882 C170.8309907 0.02105792 174.5380751 0.02099231 178.24515951 0.02089301 C213.04733775 0.01998617 247.84950513 0.02994341 282.6516796 0.04532267 C313.60004123 0.05894849 344.54839513 0.06518395 375.49675974 0.06451226 C377.48397109 0.06447185 379.47118244 0.06443149 381.45839379 0.06439118 C382.93202353 0.06436066 382.93202353 0.06436066 384.43542356 0.06432952 C389.38035353 0.06422873 394.32528349 0.06413814 399.27021345 0.06405927 C400.2456821 0.06404256 401.22115076 0.06402584 402.22617907 0.06400862 C428.05480211 0.06364379 453.88342418 0.06817843 479.71204641 0.07438583 C480.63032654 0.0746061 481.54860667 0.07482638 482.49471347 0.07505332 C486.18767112 0.0759416 489.88062876 0.07682998 493.57358639 0.07774428 C506.4438705 0.08090901 519.31415385 0.08241415 532.18443833 0.08285577 C548.7659383 0.08345181 565.34743189 0.0874251 581.92892912 0.09728723 C590.70700416 0.10241745 599.48506981 0.10480655 608.26314627 0.10329104 C614.11557219 0.10256003 619.96798895 0.10543457 625.82041193 0.11133485 C629.16220439 0.1146043 632.50396051 0.11571124 635.84575645 0.11357426 C639.43326 0.11153265 643.02070485 0.11553101 646.60820326 0.12118055 C647.6622682 0.11912523 648.71633313 0.11706991 649.80233943 0.11495231 C650.74869621 0.11771205 651.69505299 0.12047179 652.67008724 0.12331517 C653.49181364 0.12360667 654.31354003 0.12389816 655.16016722 0.1241985 C657.01751169 0.249815 657.01751169 0.249815 658.01751169 1.249815 C658.10477392 3.03052746 658.1245021 4.8146464 658.11516794 6.59747125 C658.11194529 7.67706109 658.10872263 8.75665094 658.10540232 9.86895562 C658.09702341 11.00526422 658.0886445 12.14157281 658.08001169 13.312315 C658.07549997 14.45249078 658.07098825 15.59266656 658.06633982 16.76739312 C658.05450917 19.59491851 658.03802579 22.4223414 658.01751169 25.249815 C595.01392653 25.26694551 532.0103411 25.28284622 469.00675425 25.29215814 C468.07505579 25.2922962 467.14335733 25.29243425 466.18342558 25.29257649 C445.9376492 25.29556904 425.6918728 25.29833927 405.44609636 25.30088033 C395.51832269 25.30212772 385.59054903 25.30342427 375.66277536 25.30474664 C374.6748151 25.3048774 373.68685484 25.30500816 372.66895639 25.30514288 C340.61624919 25.30940819 308.56354375 25.31692245 276.51083762 25.32611222 C243.58684664 25.3355347 210.66285663 25.34169809 177.73886432 25.34372999 C173.09414136 25.34401817 168.44941841 25.3443438 163.80469545 25.34469224 C162.89050041 25.34475966 161.97630536 25.34482709 161.03440744 25.34489655 C146.28745007 25.34608067 131.54049569 25.35072517 116.79353954 25.35664703 C101.98661943 25.36251973 87.17970231 25.36478664 72.37278107 25.36331638 C63.56360966 25.36255278 54.75444914 25.36461028 45.94527968 25.37061254 C40.07205778 25.37434282 34.19884307 25.37449259 28.32562068 25.37164681 C24.97191283 25.37012682 21.61824264 25.37078544 18.26453415 25.37469818 C14.66421789 25.37865746 11.06395673 25.37658134 7.46364149 25.37286283 C6.40579617 25.37548984 5.34795085 25.37811685 4.2580496 25.38082347 C2.83344551 25.37745253 2.83344551 25.37745253 1.38006153 25.37401349 C0.55539197 25.37416948 -0.26927759 25.37432546 -1.11893713 25.37448616 C-2.98248831 25.249815 -2.98248831 25.249815 -3.98248831 24.249815 C-4.234051 20.61082324 -4.16771057 16.95897827 -4.16998831 13.312315 C-4.1822344 12.28428765 -4.1944805 11.25626031 -4.20709768 10.19708062 C-4.20903128 9.21545953 -4.21096487 8.23383844 -4.21295706 7.22247125 C-4.21706594 6.31762994 -4.22117483 5.41278863 -4.22540823 4.48052789 C-3.90085134 1.50014969 -3.02666416 0.38139246 0 0 Z " fill="#99C3DD" transform="translate(32.98248830810189,618.7501850016415)"/>
<path d="M0 0 C0.09932153 1.69558726 0.13080007 3.39525747 0.1328125 5.09375 C0.13410156 6.12371094 0.13539063 7.15367187 0.13671875 8.21484375 C0.13285156 9.29894531 0.12898438 10.38304687 0.125 11.5 C0.12886719 12.58410156 0.13273437 13.66820312 0.13671875 14.78515625 C0.13478516 16.33009766 0.13478516 16.33009766 0.1328125 17.90625 C0.13168457 18.85822266 0.13055664 19.81019531 0.12939453 20.79101562 C0 23 0 23 -1 24 C-3.15177101 24.09893246 -5.30686287 24.12555738 -7.46090698 24.12584114 C-8.49040793 24.1280213 -8.49040793 24.1280213 -9.54070687 24.13024551 C-11.86944465 24.13393134 -14.19811803 24.13040722 -16.52685547 24.12698364 C-18.20167513 24.12813444 -19.87649453 24.12972169 -21.5513134 24.13171089 C-26.17616919 24.13590986 -30.80100451 24.13381097 -35.4258604 24.13072467 C-40.40477835 24.12847308 -45.38369263 24.13194897 -50.36260986 24.13470459 C-60.12522609 24.13916388 -69.88783465 24.13818512 -79.65045118 24.13529195 C-87.5809126 24.13303854 -95.51137185 24.13272512 -103.4418335 24.13381577 C-105.13139217 24.13404561 -105.13139217 24.13404561 -106.85508335 24.13428011 C-109.14289808 24.13459982 -111.43071282 24.13492403 -113.71852756 24.1352527 C-135.19877861 24.13810796 -156.67902541 24.13481975 -178.15927577 24.12945233 C-196.61204536 24.12498425 -215.06480865 24.12576017 -233.51757812 24.13037109 C-254.91812049 24.13571605 -276.31865911 24.13783326 -297.71920204 24.13475883 C-299.99885686 24.13444026 -302.27851168 24.13412589 -304.5581665 24.13381577 C-305.67995957 24.13366149 -306.80175264 24.13350721 -307.95753944 24.13334826 C-315.88345738 24.13248287 -323.80937295 24.13394646 -331.73529053 24.13629532 C-341.38717906 24.13909265 -351.03905946 24.13835649 -360.69094706 24.13301457 C-365.6205811 24.13037664 -370.55020155 24.12937403 -375.47983551 24.13266373 C-379.98502044 24.13562482 -384.49017906 24.13403703 -388.99536157 24.12868617 C-390.63261967 24.12756118 -392.26987996 24.12815496 -393.90713668 24.13056196 C-396.11782123 24.13356482 -398.32841345 24.13052267 -400.53909302 24.12584114 C-401.77150286 24.12567879 -403.0039127 24.12551644 -404.27366829 24.12534916 C-407 24 -407 24 -408 23 C-408.09932153 21.30441274 -408.13080007 19.60474253 -408.1328125 17.90625 C-408.13474609 16.36130859 -408.13474609 16.36130859 -408.13671875 14.78515625 C-408.13285156 13.70105469 -408.12898438 12.61695313 -408.125 11.5 C-408.12886719 10.41589844 -408.13273437 9.33179688 -408.13671875 8.21484375 C-408.13542969 7.18488281 -408.13414062 6.15492188 -408.1328125 5.09375 C-408.13168457 4.14177734 -408.13055664 3.18980469 -408.12939453 2.20898438 C-408 0 -408 0 -407 -1 C-404.87199655 -1.1039541 -402.74047613 -1.13586375 -400.60994244 -1.14145851 C-399.59191992 -1.14617123 -399.59191992 -1.14617123 -398.55333129 -1.15097916 C-396.2506068 -1.16039652 -393.9479292 -1.16262188 -391.64518738 -1.16494751 C-389.98900394 -1.17022421 -388.33282185 -1.17593623 -386.67664129 -1.18204916 C-382.10319485 -1.19763869 -377.52975335 -1.20694572 -372.9562887 -1.21526766 C-368.03251971 -1.22529528 -363.10876864 -1.24103607 -358.18501282 -1.25605774 C-348.52968607 -1.28457248 -338.87435352 -1.3076601 -329.21900817 -1.3288355 C-321.3739038 -1.34613652 -313.5288064 -1.36536887 -305.6837101 -1.38599777 C-304.56930526 -1.38892637 -303.45490042 -1.39185496 -302.30672574 -1.3948723 C-300.04315619 -1.4008291 -297.77958665 -1.40679032 -295.51601712 -1.41275589 C-274.26173434 -1.46853999 -253.00744056 -1.51818574 -231.75313804 -1.5657609 C-213.50199653 -1.60675741 -195.25087455 -1.65301622 -176.99975586 -1.703125 C-155.82882313 -1.76124778 -134.6578861 -1.81610002 -113.48693162 -1.86572587 C-111.23053347 -1.87102417 -108.97413533 -1.87632678 -106.7177372 -1.88163376 C-105.05226546 -1.88554851 -105.05226546 -1.88554851 -103.35314783 -1.88954235 C-95.51579827 -1.90819178 -87.67845702 -1.92919491 -79.84111595 -1.9510994 C-70.29216273 -1.97772476 -60.74320897 -2.00077083 -51.19423624 -2.01918437 C-46.31890621 -2.02867682 -41.44359427 -2.03980581 -36.56827927 -2.05528831 C-32.10920846 -2.06940307 -27.65015316 -2.07889195 -23.19106392 -2.08461837 C-21.57393634 -2.08751726 -19.9568108 -2.09213659 -18.33969357 -2.09860714 C-16.14896804 -2.10712061 -13.95832089 -2.10947026 -11.76758099 -2.11022377 C-9.93890154 -2.11453689 -9.93890154 -2.11453689 -8.07327908 -2.11893713 C-1.87922474 -1.87922474 -1.87922474 -1.87922474 0 0 Z " fill="#9AC3DD" transform="translate(437,668)"/>
<path d="M0 0 C0.73179427 0.00223072 1.46358853 0.00446144 2.21755838 0.00675976 C2.98949864 0.00519977 3.76143889 0.00363978 4.55677128 0.00203252 C7.16324241 -0.00198051 9.76965608 0.00121332 12.37612772 0.00434887 C14.23669834 0.00299497 16.09726869 0.0012151 17.95783854 -0.00096118 C23.0258733 -0.00553678 28.0938878 -0.00374544 33.16192293 -0.0005821 C38.45325512 0.00194085 43.74458551 -0.00039585 49.03591776 -0.00196826 C57.92357557 -0.00379015 66.81122508 -0.00138315 75.69888163 0.00337231 C85.99001989 0.00881497 96.28113834 0.00705232 106.57227612 0.00154591 C115.39092428 -0.00298468 124.20956646 -0.00363604 133.02821541 -0.00101542 C138.30270287 0.00054765 143.57718101 0.00074029 148.85166788 -0.00255191 C153.80917973 -0.00542984 158.76666592 -0.00345638 163.72417498 0.00234234 C165.54917022 0.00367036 167.3741676 0.00327512 169.19916201 0.00107968 C171.67952627 -0.0016302 174.15980695 0.00174728 176.64016581 0.00675976 C177.73785721 0.00341368 177.73785721 0.00341368 178.85772419 0 C183.81471224 0.01959355 183.81471224 0.01959355 184.92886209 1.13374341 C184.92886209 9.05374341 184.92886209 16.97374341 184.92886209 25.13374341 C121.89886209 25.13374341 58.86886209 25.13374341 -6.07113791 25.13374341 C-6.07113791 0.02399746 -6.07113791 0.02399746 0 0 Z " fill="#9AC3DD" transform="translate(506.07113790512085,556.8662565946579)"/>
<path d="M0 0 C1.55496012 0.00081715 1.55496012 0.00081715 3.14133358 0.00165081 C4.92288342 -0.00464092 4.92288342 -0.00464092 6.74042416 -0.01105976 C8.05011669 -0.00544025 9.35980923 0.00017925 10.70918941 0.00596905 C12.09700771 0.00489657 13.48482556 0.0029584 14.87264156 0.00021648 C18.64730731 -0.00464009 22.42185524 0.00303355 26.19650674 0.01316953 C30.13985551 0.02193536 34.08320044 0.02019288 38.02655697 0.01980877 C44.64848974 0.02074598 51.27037674 0.02943822 57.89229488 0.04307842 C65.55855891 0.05881103 73.22477282 0.06407634 80.89105183 0.06334287 C88.25403674 0.06273345 95.61700525 0.06783059 102.97998524 0.07613468 C106.11913271 0.0796738 109.25827438 0.08149882 112.39742374 0.08202839 C116.09014261 0.08302973 119.78281906 0.0891091 123.47552395 0.09919453 C125.48514528 0.10352961 127.49477532 0.10294631 129.50440121 0.10225201 C130.68928127 0.10651699 131.87416134 0.11078197 133.09494686 0.1151762 C134.13120992 0.11685205 135.16747297 0.11852789 136.23513794 0.12025452 C138.5546484 0.24888897 138.5546484 0.24888897 139.5546484 1.24888897 C139.65411293 3.0174809 139.68545057 4.79000348 139.6874609 6.56138897 C139.68874996 7.63646709 139.69003902 8.71154522 139.69136715 9.81920147 C139.68749996 10.95099834 139.68363277 12.08279522 139.6796484 13.24888897 C139.68351559 14.38068584 139.68738277 15.51248272 139.69136715 16.67857647 C139.68943356 18.29119366 139.68943356 18.29119366 139.6874609 19.93638897 C139.68633297 20.93025616 139.68520504 21.92412334 139.68404293 22.94810772 C139.5546484 25.24888897 139.5546484 25.24888897 138.5546484 26.24888897 C136.70703571 26.34537145 134.8556903 26.37076215 133.00556087 26.36914349 C131.80096218 26.37051815 130.59636349 26.37189281 129.3552618 26.37330914 C128.00823092 26.36976953 126.66120028 26.36613472 125.31416988 26.36241436 C123.90517332 26.36213249 122.49617661 26.36229021 121.08718014 26.36285686 C117.2505721 26.36314485 113.41399506 26.35724791 109.57739425 26.35028291 C105.57217899 26.3440496 101.5669631 26.34344559 97.56174374 26.3422575 C89.97212836 26.33914412 82.38252732 26.33093064 74.79291826 26.32090801 C66.15460916 26.30974709 57.51629939 26.30423648 48.87798488 26.29921257 C31.10353125 26.28874803 13.32909097 26.27114845 -4.4453516 26.24888897 C-4.50320807 22.29061662 -4.53889877 18.33245227 -4.5703516 14.37388897 C-4.58710941 13.24595928 -4.60386723 12.11802959 -4.62113285 10.95592022 C-4.62757816 9.87955303 -4.63402348 8.80318584 -4.6406641 7.69420147 C-4.65113773 6.69920635 -4.66161137 5.70421124 -4.67240238 4.67906475 C-4.35251262 1.25521244 -3.4145217 0.34753153 0 0 Z " fill="#9AC4DD" transform="translate(71.44535160064697,170.7511110305786)"/>
<path d="M0 0 C0.82179415 0.00008822 1.6435883 0.00017644 2.4902853 0.00026734 C3.4391456 -0.00448347 4.3880059 -0.00923429 5.36561954 -0.01412906 C6.41734331 -0.00916088 7.46906708 -0.0041927 8.55266127 0.00092603 C9.66730762 -0.00168126 10.78195397 -0.00428854 11.93037748 -0.00697483 C15.7101341 -0.01333097 19.48972811 -0.00527711 23.26948008 0.00257684 C25.9887396 0.00210102 28.70799335 -0.00138794 31.42725065 -0.00473957 C37.36246728 -0.01044061 43.29764573 -0.00865699 49.23286089 -0.0020542 C58.05843546 0.00773711 66.88398191 0.00613787 75.70955971 0.0021955 C90.55388559 -0.00408985 105.39819561 -0.00089644 120.2425197 0.00778962 C134.94710468 0.01639225 149.65168255 0.02131006 164.35627016 0.02112199 C165.26959008 0.02111434 166.18291001 0.0211067 167.12390629 0.02109882 C170.8309907 0.02105792 174.5380751 0.02099231 178.24515951 0.02089301 C213.04733775 0.01998617 247.84950513 0.02994341 282.6516796 0.04532267 C313.60004123 0.05894849 344.54839513 0.06518395 375.49675974 0.06451226 C377.48397109 0.06447185 379.47118244 0.06443149 381.45839379 0.06439118 C382.93202353 0.06436066 382.93202353 0.06436066 384.43542356 0.06432952 C389.38035353 0.06422873 394.32528349 0.06413814 399.27021345 0.06405927 C400.2456821 0.06404256 401.22115076 0.06402584 402.22617907 0.06400862 C428.05480211 0.06364379 453.88342418 0.06817843 479.71204641 0.07438583 C480.63032654 0.0746061 481.54860667 0.07482638 482.49471347 0.07505332 C486.18767112 0.0759416 489.88062876 0.07682998 493.57358639 0.07774428 C506.4438705 0.08090901 519.31415385 0.08241415 532.18443833 0.08285577 C548.7659383 0.08345181 565.34743189 0.0874251 581.92892912 0.09728723 C590.70700416 0.10241745 599.48506981 0.10480655 608.26314627 0.10329104 C614.11557219 0.10256003 619.96798895 0.10543457 625.82041193 0.11133485 C629.16220439 0.1146043 632.50396051 0.11571124 635.84575645 0.11357426 C639.43326 0.11153265 643.02070485 0.11553101 646.60820326 0.12118055 C647.6622682 0.11912523 648.71633313 0.11706991 649.80233943 0.11495231 C650.74869621 0.11771205 651.69505299 0.12047179 652.67008724 0.12331517 C653.49181364 0.12360667 654.31354003 0.12389816 655.16016722 0.1241985 C657.01751169 0.249815 657.01751169 0.249815 658.01751169 1.249815 C658.10477392 3.03052746 658.1245021 4.8146464 658.11516794 6.59747125 C658.11194529 7.67706109 658.10872263 8.75665094 658.10540232 9.86895562 C658.09702341 11.00526422 658.0886445 12.14157281 658.08001169 13.312315 C658.07549997 14.45249078 658.07098825 15.59266656 658.06633982 16.76739312 C658.05450917 19.59491851 658.03802579 22.4223414 658.01751169 25.249815 C595.01392653 25.26694551 532.0103411 25.28284622 469.00675425 25.29215814 C468.07505579 25.2922962 467.14335733 25.29243425 466.18342558 25.29257649 C445.9376492 25.29556904 425.6918728 25.29833927 405.44609636 25.30088033 C395.51832269 25.30212772 385.59054903 25.30342427 375.66277536 25.30474664 C374.6748151 25.3048774 373.68685484 25.30500816 372.66895639 25.30514288 C340.61624919 25.30940819 308.56354375 25.31692245 276.51083762 25.32611222 C243.58684664 25.3355347 210.66285663 25.34169809 177.73886432 25.34372999 C173.09414136 25.34401817 168.44941841 25.3443438 163.80469545 25.34469224 C162.89050041 25.34475966 161.97630536 25.34482709 161.03440744 25.34489655 C146.28745007 25.34608067 131.54049569 25.35072517 116.79353954 25.35664703 C101.98661943 25.36251973 87.17970231 25.36478664 72.37278107 25.36331638 C63.56360966 25.36255278 54.75444914 25.36461028 45.94527968 25.37061254 C40.07205778 25.37434282 34.19884307 25.37449259 28.32562068 25.37164681 C24.97191283 25.37012682 21.61824264 25.37078544 18.26453415 25.37469818 C14.66421789 25.37865746 11.06395673 25.37658134 7.46364149 25.37286283 C6.40579617 25.37548984 5.34795085 25.37811685 4.2580496 25.38082347 C2.83344551 25.37745253 2.83344551 25.37745253 1.38006153 25.37401349 C0.55539197 25.37416948 -0.26927759 25.37432546 -1.11893713 25.37448616 C-2.98248831 25.249815 -2.98248831 25.249815 -3.98248831 24.249815 C-4.234051 20.61082324 -4.16771057 16.95897827 -4.16998831 13.312315 C-4.1822344 12.28428765 -4.1944805 11.25626031 -4.20709768 10.19708062 C-4.20903128 9.21545953 -4.21096487 8.23383844 -4.21295706 7.22247125 C-4.21706594 6.31762994 -4.22117483 5.41278863 -4.22540823 4.48052789 C-3.90085134 1.50014969 -3.02666416 0.38139246 0 0 Z M-1.98248831 2.249815 C-1.98248831 9.179815 -1.98248831 16.109815 -1.98248831 23.249815 C215.15751169 23.249815 432.29751169 23.249815 656.01751169 23.249815 C656.01751169 16.319815 656.01751169 9.389815 656.01751169 2.249815 C438.87751169 2.249815 221.73751169 2.249815 -1.98248831 2.249815 Z " fill="#DBE9F2" transform="translate(32.98248830810189,618.7501850016415)"/>
<path d="M0 0 C5.61 0 11.22 0 17 0 C17.8539867 11.10182708 14.82346804 19.75856776 11 30 C10.34 30 9.68 30 9 30 C8.91492188 30.55171875 8.82984375 31.1034375 8.7421875 31.671875 C5.05232351 43.24639573 -8.38202185 51.43988504 -18.55078125 56.84375 C-26.10399282 60.40954047 -33.85170291 63.18926731 -42 65 C-43.485 65.495 -43.485 65.495 -45 66 C-46.55266653 66.1464714 -48.10995662 66.24694074 -49.66796875 66.31640625 C-50.56064453 66.35830078 -51.45332031 66.40019531 -52.37304688 66.44335938 C-53.30181641 66.48267578 -54.23058594 66.52199219 -55.1875 66.5625 C-56.12787109 66.60568359 -57.06824219 66.64886719 -58.03710938 66.69335938 C-60.35790188 66.79938543 -62.67893177 66.90019194 -65 67 C-65 61.39 -65 55.78 -65 50 C-63.370625 49.9175 -61.74125 49.835 -60.0625 49.75 C-42.21755471 48.24882569 -24.19998271 42.58603003 -11 30 C-3.62399581 21.18477548 -0.44948231 11.38688513 0 0 Z " fill="#99C3DD" transform="translate(459,468)"/>
<path d="M0 0 C12.99147268 19.48720901 11.56008599 50.74081832 7.51367188 72.51757812 C6.14012047 79.15553949 4.15792403 85.58068655 2 92 C1.70480469 92.89589844 1.40960937 93.79179687 1.10546875 94.71484375 C-3.59834036 107.62347057 -11.4645505 119.35164944 -20 130 C-20.46019531 130.60199219 -20.92039062 131.20398438 -21.39453125 131.82421875 C-24.20135961 135.40081275 -27.46997531 138.29884017 -30.921875 141.2265625 C-32.22673118 142.34010518 -33.51175096 143.47778519 -34.765625 144.6484375 C-53.41062016 161.91532433 -77.18151666 171.23654146 -102 175 C-102.96550781 175.20109375 -103.93101562 175.4021875 -104.92578125 175.609375 C-107.59125002 175.94806226 -109.70328635 175.9259429 -112.35546875 175.71875 C-121.12132319 175.02795317 -121.12132319 175.02795317 -128.80810547 178.53417969 C-132.11052173 182.60519954 -134.45901565 187.21652437 -136.83984375 191.86621094 C-141.35937439 200.17864734 -148.86002145 207.88648771 -156 214 C-156.66 214 -157.32 214 -158 214 C-158 214.66 -158 215.32 -158 216 C-160.04908117 217.65805828 -162.09120084 219.18373067 -164.25 220.6875 C-164.88679688 221.13448242 -165.52359375 221.58146484 -166.1796875 222.04199219 C-188.22250315 237.33364667 -212.23012744 246.17540217 -239.06196594 246.13371277 C-240.14333035 246.13597833 -241.22469476 246.13824388 -242.33882779 246.14057809 C-245.9450531 246.14688409 -249.5512405 246.14609092 -253.1574707 246.14526367 C-255.75013273 246.14825726 -258.34279432 246.15166026 -260.93545532 246.15544128 C-267.23686274 246.16372379 -273.53826079 246.16649503 -279.8396732 246.16705366 C-284.96473839 246.16752992 -290.08980051 246.16959013 -295.21486473 246.17275429 C-309.76535003 246.18155395 -324.31582796 246.18617469 -338.86631594 246.18542381 C-339.64962846 246.18538386 -340.43294097 246.1853439 -341.23999023 246.18530273 C-342.02426591 246.18526185 -342.80854159 246.18522097 -343.61658319 246.18517885 C-356.32434125 246.18477247 -369.03206966 246.19434177 -381.73981915 246.2084411 C-394.80762753 246.22282482 -407.87542147 246.2297102 -420.94323796 246.22884732 C-428.27197376 246.22851607 -435.60067848 246.23123191 -442.92940712 246.24202538 C-449.82328108 246.25211389 -456.71708849 246.25177468 -463.61096573 246.24450874 C-466.13603626 246.2434649 -468.66111091 246.24581386 -471.18617439 246.2518692 C-474.64322039 246.25962033 -478.10004175 246.2549236 -481.55708313 246.24723816 C-482.54709125 246.25238172 -483.53709938 246.25752529 -484.55710775 246.26282471 C-504.12807637 246.16722363 -525.33936567 240.459176 -542 230 C-539 229 -539 229 -536.6953125 229.92578125 C-535.42300781 230.61220703 -535.42300781 230.61220703 -534.125 231.3125 C-529.04149255 234.02525856 -524.37317358 236.06367427 -518.6875 237.125 C-517.36298828 237.37636719 -517.36298828 237.37636719 -516.01171875 237.6328125 C-515.34785156 237.75398437 -514.68398438 237.87515625 -514 238 C-514 238.66 -514 239.32 -514 240 C-512.78376953 240.07347656 -512.78376953 240.07347656 -511.54296875 240.1484375 C-510.43566406 240.22320313 -509.32835937 240.29796875 -508.1875 240.375 C-507.10855469 240.44460938 -506.02960938 240.51421875 -504.91796875 240.5859375 C-501.83781869 240.91145685 -498.97728014 241.39242315 -495.95384216 242.00916481 C-490.19807877 243.06591999 -484.6606076 243.28591424 -478.82055664 243.26742554 C-477.21560585 243.27422221 -477.21560585 243.27422221 -475.57823181 243.28115618 C-472.02216169 243.29373355 -468.46624604 243.29218411 -464.91015625 243.29052734 C-462.34825953 243.29651686 -459.78636461 243.30332338 -457.22447205 243.31088257 C-451.00386397 243.32668112 -444.78331168 243.33298925 -438.56268543 243.33410732 C-433.499223 243.33506113 -428.43577296 243.33918793 -423.37231445 243.34550858 C-408.97977542 243.3631057 -394.58726609 243.37235018 -380.19471622 243.37084763 C-379.42034756 243.37076772 -378.6459789 243.3706878 -377.84814453 243.37060547 C-377.07281726 243.37052371 -376.29748999 243.37044195 -375.49866796 243.37035771 C-362.95092367 243.36954588 -350.40329973 243.38866149 -337.85559022 243.4168822 C-324.93570994 243.44570783 -312.01588814 243.45941711 -299.09597492 243.45769465 C-291.85699183 243.45703394 -284.61813481 243.46238471 -277.37918091 243.48405075 C-270.56316836 243.50432189 -263.74742455 243.50349065 -256.93139839 243.48901749 C-254.44312716 243.48694024 -251.95483893 243.4915648 -249.4665966 243.5037384 C-232.47612784 243.58141595 -217.10051389 242.20086106 -200.98100281 236.67539918 C-199.27766171 236.09466544 -197.55983425 235.55673514 -195.83984375 235.02734375 C-192.54017003 233.83365161 -189.62543287 232.27230046 -186.5625 230.5625 C-179.80545442 226.82814186 -179.80545442 226.82814186 -176.25 225.5625 C-172.2422081 223.63567697 -169.50771909 221.00882024 -166.27734375 217.98828125 C-164.14325772 216.12507406 -162.07076827 214.72610918 -159.625 213.3125 C-156.2677258 211.33529108 -154.80067518 209.5113166 -153 206 C-150.9375 203.6875 -150.9375 203.6875 -149 202 C-148.34 202 -147.68 202 -147 202 C-146.773125 201.443125 -146.54625 200.88625 -146.3125 200.3125 C-144.63891899 197.36380964 -142.39706987 195.39706987 -140 193 C-136.59875823 188.93047905 -134.34659863 184.92748421 -132.67578125 179.89453125 C-131.9401703 177.83226935 -130.99240348 175.94964405 -130 174 C-128.88310791 173.97812622 -128.88310791 173.97812622 -127.74365234 173.95581055 C-109.49723361 173.75454653 -109.49723361 173.75454653 -91.6015625 170.62109375 C-88.97095536 169.99306592 -86.69339466 169.88736713 -84 170 C-84 169.34 -84 168.68 -84 168 C-78.06 167.01 -78.06 167.01 -72 166 C-72 165.34 -72 164.68 -72 164 C-71.41734375 163.79246094 -70.8346875 163.58492187 -70.234375 163.37109375 C-63.88710387 160.98587708 -58.24589595 157.93433824 -52.46875 154.390625 C-50 153 -50 153 -48 153 C-48 152.34 -48 151.68 -48 151 C-46.453125 149.87890625 -46.453125 149.87890625 -44.25 148.5625 C-33.75693012 141.76510253 -25.60873985 132.822458 -18 123 C-17.04287109 121.85917969 -17.04287109 121.85917969 -16.06640625 120.6953125 C-10.89375238 114.44363191 -7.56197187 107.68591561 -5 100 C-4.34 100 -3.68 100 -3 100 C-2.9175 99.030625 -2.835 98.06125 -2.75 97.0625 C-2.33160536 94.05005858 -1.48989695 91.77145577 -0.125 89.0625 C6.54874216 74.817094 6.35300788 56.98474499 5.6875 41.625 C5.63899902 40.44760254 5.59049805 39.27020508 5.54052734 38.05712891 C4.85985305 21.62087619 4.85985305 21.62087619 0.5859375 5.83203125 C0 4 0 4 0 0 Z " fill="#EEF6FD" transform="translate(636,335)"/>
<path d="M0 0 C0.09932153 1.69558726 0.13080007 3.39525747 0.1328125 5.09375 C0.13410156 6.12371094 0.13539063 7.15367187 0.13671875 8.21484375 C0.13285156 9.29894531 0.12898438 10.38304687 0.125 11.5 C0.12886719 12.58410156 0.13273437 13.66820312 0.13671875 14.78515625 C0.13478516 16.33009766 0.13478516 16.33009766 0.1328125 17.90625 C0.13168457 18.85822266 0.13055664 19.81019531 0.12939453 20.79101562 C0 23 0 23 -1 24 C-3.15177101 24.09893246 -5.30686287 24.12555738 -7.46090698 24.12584114 C-8.49040793 24.1280213 -8.49040793 24.1280213 -9.54070687 24.13024551 C-11.86944465 24.13393134 -14.19811803 24.13040722 -16.52685547 24.12698364 C-18.20167513 24.12813444 -19.87649453 24.12972169 -21.5513134 24.13171089 C-26.17616919 24.13590986 -30.80100451 24.13381097 -35.4258604 24.13072467 C-40.40477835 24.12847308 -45.38369263 24.13194897 -50.36260986 24.13470459 C-60.12522609 24.13916388 -69.88783465 24.13818512 -79.65045118 24.13529195 C-87.5809126 24.13303854 -95.51137185 24.13272512 -103.4418335 24.13381577 C-105.13139217 24.13404561 -105.13139217 24.13404561 -106.85508335 24.13428011 C-109.14289808 24.13459982 -111.43071282 24.13492403 -113.71852756 24.1352527 C-135.19877861 24.13810796 -156.67902541 24.13481975 -178.15927577 24.12945233 C-196.61204536 24.12498425 -215.06480865 24.12576017 -233.51757812 24.13037109 C-254.91812049 24.13571605 -276.31865911 24.13783326 -297.71920204 24.13475883 C-299.99885686 24.13444026 -302.27851168 24.13412589 -304.5581665 24.13381577 C-305.67995957 24.13366149 -306.80175264 24.13350721 -307.95753944 24.13334826 C-315.88345738 24.13248287 -323.80937295 24.13394646 -331.73529053 24.13629532 C-341.38717906 24.13909265 -351.03905946 24.13835649 -360.69094706 24.13301457 C-365.6205811 24.13037664 -370.55020155 24.12937403 -375.47983551 24.13266373 C-379.98502044 24.13562482 -384.49017906 24.13403703 -388.99536157 24.12868617 C-390.63261967 24.12756118 -392.26987996 24.12815496 -393.90713668 24.13056196 C-396.11782123 24.13356482 -398.32841345 24.13052267 -400.53909302 24.12584114 C-401.77150286 24.12567879 -403.0039127 24.12551644 -404.27366829 24.12534916 C-407 24 -407 24 -408 23 C-408.09932153 21.30441274 -408.13080007 19.60474253 -408.1328125 17.90625 C-408.13474609 16.36130859 -408.13474609 16.36130859 -408.13671875 14.78515625 C-408.13285156 13.70105469 -408.12898438 12.61695313 -408.125 11.5 C-408.12886719 10.41589844 -408.13273437 9.33179688 -408.13671875 8.21484375 C-408.13542969 7.18488281 -408.13414062 6.15492188 -408.1328125 5.09375 C-408.13168457 4.14177734 -408.13055664 3.18980469 -408.12939453 2.20898438 C-408 0 -408 0 -407 -1 C-404.87199655 -1.1039541 -402.74047613 -1.13586375 -400.60994244 -1.14145851 C-399.59191992 -1.14617123 -399.59191992 -1.14617123 -398.55333129 -1.15097916 C-396.2506068 -1.16039652 -393.9479292 -1.16262188 -391.64518738 -1.16494751 C-389.98900394 -1.17022421 -388.33282185 -1.17593623 -386.67664129 -1.18204916 C-382.10319485 -1.19763869 -377.52975335 -1.20694572 -372.9562887 -1.21526766 C-368.03251971 -1.22529528 -363.10876864 -1.24103607 -358.18501282 -1.25605774 C-348.52968607 -1.28457248 -338.87435352 -1.3076601 -329.21900817 -1.3288355 C-321.3739038 -1.34613652 -313.5288064 -1.36536887 -305.6837101 -1.38599777 C-304.56930526 -1.38892637 -303.45490042 -1.39185496 -302.30672574 -1.3948723 C-300.04315619 -1.4008291 -297.77958665 -1.40679032 -295.51601712 -1.41275589 C-274.26173434 -1.46853999 -253.00744056 -1.51818574 -231.75313804 -1.5657609 C-213.50199653 -1.60675741 -195.25087455 -1.65301622 -176.99975586 -1.703125 C-155.82882313 -1.76124778 -134.6578861 -1.81610002 -113.48693162 -1.86572587 C-111.23053347 -1.87102417 -108.97413533 -1.87632678 -106.7177372 -1.88163376 C-105.05226546 -1.88554851 -105.05226546 -1.88554851 -103.35314783 -1.88954235 C-95.51579827 -1.90819178 -87.67845702 -1.92919491 -79.84111595 -1.9510994 C-70.29216273 -1.97772476 -60.74320897 -2.00077083 -51.19423624 -2.01918437 C-46.31890621 -2.02867682 -41.44359427 -2.03980581 -36.56827927 -2.05528831 C-32.10920846 -2.06940307 -27.65015316 -2.07889195 -23.19106392 -2.08461837 C-21.57393634 -2.08751726 -19.9568108 -2.09213659 -18.33969357 -2.09860714 C-16.14896804 -2.10712061 -13.95832089 -2.10947026 -11.76758099 -2.11022377 C-9.93890154 -2.11453689 -9.93890154 -2.11453689 -8.07327908 -2.11893713 C-1.87922474 -1.87922474 -1.87922474 -1.87922474 0 0 Z M-406 0 C-406 7.26 -406 14.52 -406 22 C-272.68 22 -139.36 22 -2 22 C-2 14.74 -2 7.48 -2 0 C-135.32 0 -268.64 0 -406 0 Z " fill="#E1F6FA" transform="translate(437,668)"/>
<path d="M0 0 C0.73179427 0.00223072 1.46358853 0.00446144 2.21755838 0.00675976 C2.98949864 0.00519977 3.76143889 0.00363978 4.55677128 0.00203252 C7.16324241 -0.00198051 9.76965608 0.00121332 12.37612772 0.00434887 C14.23669834 0.00299497 16.09726869 0.0012151 17.95783854 -0.00096118 C23.0258733 -0.00553678 28.0938878 -0.00374544 33.16192293 -0.0005821 C38.45325512 0.00194085 43.74458551 -0.00039585 49.03591776 -0.00196826 C57.92357557 -0.00379015 66.81122508 -0.00138315 75.69888163 0.00337231 C85.99001989 0.00881497 96.28113834 0.00705232 106.57227612 0.00154591 C115.39092428 -0.00298468 124.20956646 -0.00363604 133.02821541 -0.00101542 C138.30270287 0.00054765 143.57718101 0.00074029 148.85166788 -0.00255191 C153.80917973 -0.00542984 158.76666592 -0.00345638 163.72417498 0.00234234 C165.54917022 0.00367036 167.3741676 0.00327512 169.19916201 0.00107968 C171.67952627 -0.0016302 174.15980695 0.00174728 176.64016581 0.00675976 C177.73785721 0.00341368 177.73785721 0.00341368 178.85772419 0 C183.81471224 0.01959355 183.81471224 0.01959355 184.92886209 1.13374341 C184.92886209 9.05374341 184.92886209 16.97374341 184.92886209 25.13374341 C121.89886209 25.13374341 58.86886209 25.13374341 -6.07113791 25.13374341 C-6.07113791 0.02399746 -6.07113791 0.02399746 0 0 Z M-5.07113791 2.13374341 C-5.07113791 9.39374341 -5.07113791 16.65374341 -5.07113791 24.13374341 C56.96886209 24.13374341 119.00886209 24.13374341 182.92886209 24.13374341 C182.92886209 16.87374341 182.92886209 9.61374341 182.92886209 2.13374341 C120.88886209 2.13374341 58.84886209 2.13374341 -5.07113791 2.13374341 Z " fill="#E8F1F7" transform="translate(506.07113790512085,556.8662565946579)"/>
<path d="M0 0 C1.55496012 0.00081715 1.55496012 0.00081715 3.14133358 0.00165081 C4.92288342 -0.00464092 4.92288342 -0.00464092 6.74042416 -0.01105976 C8.05011669 -0.00544025 9.35980923 0.00017925 10.70918941 0.00596905 C12.09700771 0.00489657 13.48482556 0.0029584 14.87264156 0.00021648 C18.64730731 -0.00464009 22.42185524 0.00303355 26.19650674 0.01316953 C30.13985551 0.02193536 34.08320044 0.02019288 38.02655697 0.01980877 C44.64848974 0.02074598 51.27037674 0.02943822 57.89229488 0.04307842 C65.55855891 0.05881103 73.22477282 0.06407634 80.89105183 0.06334287 C88.25403674 0.06273345 95.61700525 0.06783059 102.97998524 0.07613468 C106.11913271 0.0796738 109.25827438 0.08149882 112.39742374 0.08202839 C116.09014261 0.08302973 119.78281906 0.0891091 123.47552395 0.09919453 C125.48514528 0.10352961 127.49477532 0.10294631 129.50440121 0.10225201 C130.68928127 0.10651699 131.87416134 0.11078197 133.09494686 0.1151762 C134.13120992 0.11685205 135.16747297 0.11852789 136.23513794 0.12025452 C138.5546484 0.24888897 138.5546484 0.24888897 139.5546484 1.24888897 C139.65411293 3.0174809 139.68545057 4.79000348 139.6874609 6.56138897 C139.68874996 7.63646709 139.69003902 8.71154522 139.69136715 9.81920147 C139.68749996 10.95099834 139.68363277 12.08279522 139.6796484 13.24888897 C139.68351559 14.38068584 139.68738277 15.51248272 139.69136715 16.67857647 C139.68943356 18.29119366 139.68943356 18.29119366 139.6874609 19.93638897 C139.68633297 20.93025616 139.68520504 21.92412334 139.68404293 22.94810772 C139.5546484 25.24888897 139.5546484 25.24888897 138.5546484 26.24888897 C136.70703571 26.34537145 134.8556903 26.37076215 133.00556087 26.36914349 C131.80096218 26.37051815 130.59636349 26.37189281 129.3552618 26.37330914 C128.00823092 26.36976953 126.66120028 26.36613472 125.31416988 26.36241436 C123.90517332 26.36213249 122.49617661 26.36229021 121.08718014 26.36285686 C117.2505721 26.36314485 113.41399506 26.35724791 109.57739425 26.35028291 C105.57217899 26.3440496 101.5669631 26.34344559 97.56174374 26.3422575 C89.97212836 26.33914412 82.38252732 26.33093064 74.79291826 26.32090801 C66.15460916 26.30974709 57.51629939 26.30423648 48.87798488 26.29921257 C31.10353125 26.28874803 13.32909097 26.27114845 -4.4453516 26.24888897 C-4.50320807 22.29061662 -4.53889877 18.33245227 -4.5703516 14.37388897 C-4.58710941 13.24595928 -4.60386723 12.11802959 -4.62113285 10.95592022 C-4.62757816 9.87955303 -4.63402348 8.80318584 -4.6406641 7.69420147 C-4.65113773 6.69920635 -4.66161137 5.70421124 -4.67240238 4.67906475 C-4.35251262 1.25521244 -3.4145217 0.34753153 0 0 Z M-2.4453516 2.24888897 C-2.4453516 9.50888897 -2.4453516 16.76888897 -2.4453516 24.24888897 C44.0846484 24.24888897 90.6146484 24.24888897 138.5546484 24.24888897 C138.5546484 16.98888897 138.5546484 9.72888897 138.5546484 2.24888897 C92.0246484 2.24888897 45.4946484 2.24888897 -2.4453516 2.24888897 Z " fill="#E6F0F6" transform="translate(71.44535160064697,170.7511110305786)"/>
<path d="M0 0 C0 0.99 0 1.98 0 3 C-6.60516783 4.68938479 -12.58221796 5.28324787 -19.38343811 5.24050903 C-20.39159826 5.24221788 -21.39975841 5.24392673 -22.43846887 5.24568737 C-25.79637391 5.24896586 -29.15407645 5.23800559 -32.51196289 5.22705078 C-34.92705277 5.22648631 -37.34214299 5.22680392 -39.75723267 5.22793579 C-44.94636534 5.22839035 -50.13545273 5.22273963 -55.32457161 5.21146011 C-62.82703748 5.19516277 -70.32947907 5.18999279 -77.83196073 5.18748413 C-90.00607033 5.18311365 -102.18015304 5.16982216 -114.35424805 5.15087891 C-126.17586127 5.13250332 -137.99746717 5.11835504 -149.8190918 5.10986328 C-150.9132659 5.10907511 -150.9132659 5.10907511 -152.02954454 5.10827102 C-155.68920624 5.10566082 -159.34886799 5.10313344 -163.00852978 5.10064721 C-193.33903911 5.07993488 -223.66951581 5.0445777 -254 5 C-254 4.67 -254 4.34 -254 4 C-252.79054875 3.99761165 -251.58109751 3.99522329 -250.33499622 3.99276257 C-221.58549614 3.93532673 -192.83606205 3.8625424 -164.08665122 3.77101372 C-160.54336354 3.75974638 -157.00007545 3.7486078 -153.45678711 3.73754883 C-152.75142144 3.73534514 -152.04605578 3.73314146 -151.3193154 3.730871 C-139.91792323 3.69555769 -128.51653113 3.67065995 -117.11510465 3.64965298 C-105.40467981 3.62784327 -93.69432555 3.59474407 -81.98396081 3.55129844 C-75.41127021 3.52739851 -68.83865749 3.5086485 -62.26592445 3.50238609 C-56.07303927 3.49632074 -49.88035328 3.4762681 -43.68754196 3.44572449 C-41.42092334 3.43696757 -39.15427866 3.43321679 -36.88764381 3.43499184 C-21.483734 3.49940402 -21.483734 3.49940402 -6.41763592 0.64104939 C-4 0 -4 0 0 0 Z " fill="#D4E9FC" transform="translate(426,575)"/>
<path d="M0 0 C4.87935554 0.60991944 8.6993505 2.77888267 13 5 C17.77766847 7.26310612 22.83236571 8.05678131 28 9 C28 9.66 28 10.32 28 11 C28.81082031 11.04898438 29.62164062 11.09796875 30.45703125 11.1484375 C32.11798828 11.26058594 32.11798828 11.26058594 33.8125 11.375 C34.89144531 11.44460938 35.97039062 11.51421875 37.08203125 11.5859375 C40.17156164 11.91244819 43.05803992 12.39013886 46.09375 13 C52.60895076 14.22721838 59.07241386 14.44671581 65.6875 14.625 C66.87794922 14.66367187 68.06839844 14.70234375 69.29492188 14.7421875 C72.19647053 14.83540995 75.09802966 14.92121348 78 15 C78 15.33 78 15.66 78 16 C72.8629296 16.10032587 67.72645318 16.17214084 62.58862305 16.21972656 C60.84796187 16.23960335 59.10736526 16.26671465 57.36694336 16.30175781 C45.83318095 16.52784482 35.98006195 15.69417896 25 12 C23.75512817 11.5985376 23.75512817 11.5985376 22.48510742 11.18896484 C14.62639766 8.55051028 7.03565991 5.41683095 0 1 C0 0.67 0 0.34 0 0 Z " fill="#E4F1FD" transform="translate(94,564)"/>
<path d="M0 0 C0.66 0 1.32 0 2 0 C2.66 2.97 3.32 5.94 4 9 C4.66 9 5.32 9 6 9 C6.51046875 10.09054687 6.51046875 10.09054687 7.03125 11.203125 C12.14559348 21.81266732 17.50056962 31.78524275 27 39 C29.4375 41.25 29.4375 41.25 31 43 C31 43.66 31 44.32 31 45 C31.556875 45.226875 32.11375 45.45375 32.6875 45.6875 C35.66159588 47.37550036 37.72008865 49.46676517 40 52 C40 52.66 40 53.32 40 54 C37.50638429 52.79618552 35.31856917 51.54571278 33 50 C33 49.34 33 48.68 33 48 C32.401875 47.731875 31.80375 47.46375 31.1875 47.1875 C29.00152146 46.00082594 27.58667406 44.90400887 26 43 C26 42.34 26 41.68 26 41 C25.34 41 24.68 41 24 41 C15.21076866 31.90077503 0 13.26260713 0 0 Z " fill="#EDF6FC" transform="translate(38,499)"/>
<path d="M0 0 C1.69658297 2.54487446 2.4408037 4.0386675 3.25390625 6.87109375 C3.46853516 7.61037109 3.68316406 8.34964844 3.90429688 9.11132812 C4.12150391 9.87896484 4.33871094 10.64660156 4.5625 11.4375 C4.78357422 12.20126953 5.00464844 12.96503906 5.23242188 13.75195312 C5.83167262 15.83213169 6.42615877 17.9126687 7 20 C7.1846582 20.58152832 7.36931641 21.16305664 7.55957031 21.76220703 C8.21578874 25.09640776 8.16278051 28.4236776 8.16796875 31.80859375 C8.17129715 32.57115982 8.17462555 33.33372589 8.17805481 34.11940002 C8.18311267 35.73576253 8.18546349 37.35213545 8.18530273 38.96850586 C8.18746468 41.39780862 8.20556345 43.82663839 8.22460938 46.25585938 C8.25653375 55.38517789 7.76729561 64.01332684 6 73 C5.67 73 5.34 73 5 73 C5.0407666 72.29319092 5.0815332 71.58638184 5.12353516 70.8581543 C7.09505189 38.26045969 7.09505189 38.26045969 0.8046875 6.50390625 C0 4 0 4 0 0 Z " fill="#D7EAF4" transform="translate(636,335)"/>
<path d="M0 0 C9.42063061 11.22807719 11.14540726 29.98467911 12 44 C17.61 44.66 23.22 45.32 29 46 C29 46.33 29 46.66 29 47 C22.89867013 47.11252453 17.03037619 46.98678883 11 46 C9.32675067 44.32675067 9.54777864 42.1143289 9.25 39.8125 C8.29599646 33.34966402 6.98929519 26.99946721 5.5625 20.625 C5.3572168 19.6863208 5.15193359 18.7476416 4.94042969 17.78051758 C4.01259408 13.70435717 3.0475069 9.84788098 1.33984375 6.0234375 C0 3 0 3 0 0 Z " fill="#F1F7FB" transform="translate(515,210)"/>
<path d="M0 0 C4.62260276 0.63359999 8.50373723 2.4825326 12.625 4.5625 C13.33358154 4.91965088 14.04216309 5.27680176 14.7722168 5.64477539 C20.98570758 8.85612382 26.53497732 12.63127901 32 17 C32.94746094 17.74507813 33.89492188 18.49015625 34.87109375 19.2578125 C40.23454662 23.55148576 45.28748747 27.99798158 50 33 C49.505 33.99 49.505 33.99 49 35 C40.56139199 27.59093894 40.56139199 27.59093894 37.625 24.5 C26.86224896 14.24976091 13.25911113 7.417974 0 1 C0 0.67 0 0.34 0 0 Z " fill="#ECF5F9" transform="translate(563,263)"/>
<path d="M0 0 C4.163068 1.63120213 6.93767905 4.67816902 10 7.8125 C10.52078125 8.33392578 11.0415625 8.85535156 11.578125 9.39257812 C20 17.91015625 20 17.91015625 20 21 C19.34 21 18.68 21 18 21 C16.71211757 19.52855732 15.49429673 17.9954285 14.3125 16.4375 C10.06011836 10.98671989 5.78184384 5.85456256 0 2 C0 1.34 0 0.68 0 0 Z " fill="#F0F7FA" transform="translate(481,166)"/>
<path d="M0 0 C6.83981276 0.51621228 12.63876684 2.48590969 19 5 C13.39488741 6.86837086 7.00621772 4.98344006 1.8125 2.4375 C1.214375 1.963125 0.61625 1.48875 0 1 C0 0.67 0 0.34 0 0 Z " fill="#E2F0F7" transform="translate(544,257)"/>
<path d="M0 0 C2.94995547 3.45856848 5.22675738 6.80021485 7 11 C6.67 11.66 6.34 12.32 6 13 C2.57546571 8.60957142 0.41778991 5.7097955 0 0 Z " fill="#EAF3F8" transform="translate(508,197)"/>
<path d="M0 0 C0.66 0.33 1.32 0.66 2 1 C-3.29230769 5.92307692 -3.29230769 5.92307692 -6.875 6.3125 C-7.926875 6.1578125 -7.926875 6.1578125 -9 6 C-6.45368965 3.02930459 -3.57769851 1.5224249 0 0 Z " fill="#D9EBFB" transform="translate(456,562)"/>
<path d="M0 0 C1.47769949 2.95539898 0.56171816 5.05125224 -0.25390625 8.15625 C-1 10 -1 10 -3.125 11.5 C-3.74375 11.665 -4.3625 11.83 -5 12 C-4.67 10.68 -4.34 9.36 -4 8 C-3.34 8 -2.68 8 -2 8 C-1.855625 6.865625 -1.71125 5.73125 -1.5625 4.5625 C-1 1 -1 1 0 0 Z " fill="#E5F1F8" transform="translate(635,427)"/>
</svg>
